<svg xmlns="http://www.w3.org/2000/svg" width="16" height="16" class="icon" viewBox="0 0 1024 1024"><path fill="#67c23a" d="M351.809 846.752c-19.16 0-37.254-7.45-51.091-21.288-1.065-1.064-1.065-2.129-2.129-2.129L39.941 505.081c-11.708-13.837-9.58-35.125 5.322-46.833 13.837-11.708 35.125-9.58 46.834 5.322l256.519 316.125c2.128 2.129 4.257 2.129 7.45-1.064l566.258-602.447c12.773-13.837 34.06-13.837 46.833-1.065 13.837 12.773 13.837 34.06 1.065 46.834L402.9 825.464c-13.838 13.837-31.932 21.288-51.091 21.288"/></svg>