<svg xmlns="http://www.w3.org/2000/svg" width="16" height="16" class="icon" viewBox="0 0 1024 1024"><path fill="#409eff" d="M584.235 994.345H231.603c-74.565 0-135.15-60.584-135.15-135.15V360.54c0-74.565 60.585-135.15 135.15-135.15h352.632c74.566 0 135.15 60.585 135.15 135.15v498.656c0 74.566-60.584 135.15-135.15 135.15M231.603 303.062c-31.846 0-57.477 25.631-57.477 57.477v498.656c0 31.846 25.631 57.478 57.477 57.478h352.632c31.846 0 57.478-25.632 57.478-57.478V360.54c0-31.846-25.632-57.477-57.478-57.477z"/><path fill="#409eff" d="M832.01 791.62c-21.748 0-38.836-17.088-38.836-38.836v-457.49c0-80.779-65.245-146.024-146.024-146.024H336.46c-21.748 0-38.836-17.088-38.836-38.836s17.088-38.836 38.837-38.836H647.15c123.499 0 223.696 100.197 223.696 223.696v457.49c0 20.972-17.088 38.836-38.836 38.836"/></svg>